you can check out screen shots at..........










General                   : 
Format                           : MPEG-4
Format profile                   : Base Media
Codec ID                         : isom
File size                        : 96.4 MiB
Duration                         : 22mn 26s
Overall bit rate                 : 601 Kbps

Video
ID                               : 1
Format                           : AVC
Format/Info                      : Advanced Video Codec
Format profile                   : High@L5.1
Format settings, CABAC           : Yes
Format settings, ReFrames        : 8 frames
Codec ID                         : avc1
Codec ID/Info                    : Advanced Video Coding
Duration                         : 22mn 26s
Bit rate mode                    : Variable
Bit rate                         : 550 Kbps
Maximum bit rate                 : 2 849 Kbps
Width                            : 1 280 pixels
Height                           : 720 pixels
Display aspect ratio             : 16:9
Original display aspect ratio    : 16:9
Frame rate mode                  : Constant
Frame rate                       : 23.976 fps
Color space                      : YUV
Chroma subsampling               : 4:2:0
Bit depth                        : 8 bits
Scan type                        : Progressive
Bits/(Pixel*Frame)               : 0.025
Stream size                      : 88.3 MiB (92%)
Writing library                  : x264 core 56 svn-676

Audio
ID                               : 2
Format                           : AAC
Format/Info                      : Advanced Audio Codec
Format profile                   : HE-AACv2 / HE-AAC / LC
Codec ID                         : 40
Duration                         : 22mn 26s
Bit rate mode                    : Variable
Bit rate                         : 48.0 Kbps
Maximum bit rate                 : 53.2 Kbps
Channel(s)                       : 2 channels / 2 channels / 2 channels
Channel positions                : Front: L R / Front: L R / Front: L R
Sampling rate                    : 48.0 KHz / 48.0 KHz / 24.0 KHz
Compression mode                 : Lossy
Stream size                      : 7.71 MiB (8%)
